<?xml version="1.0" encoding="UTF-8" standalone="no"?>
<!-- Created with Inkscape (http://www.inkscape.org/) -->

<svg
   width="210mm"
   height="210mm"
   viewBox="0 0 210 210"
   version="1.1"
   id="svg5"
   xml:space="preserve"
   xmlns:xlink="http://www.w3.org/1999/xlink"
   xmlns="http://www.w3.org/2000/svg"
   xmlns:svg="http://www.w3.org/2000/svg"><defs
     id="defs2"><linearGradient
       id="linearGradient5156"><stop
         style="stop-color:#00ccff;stop-opacity:1;"
         offset="0"
         id="stop5152" /><stop
         style="stop-color:#003380;stop-opacity:1"
         offset="1"
         id="stop5154" /></linearGradient><linearGradient
       xlink:href="#linearGradient5156"
       id="linearGradient5158"
       x1="108.92513"
       y1="-6.9727192"
       x2="107.04059"
       y2="219.92322"
       gradientUnits="userSpaceOnUse"
       gradientTransform="matrix(0.88947404,0,0,0.908646,9.4892852,8.9366344)" /><clipPath
       clipPathUnits="userSpaceOnUse"
       id="clipPath21527"><g
         transform="matrix(0.01072917,0,0,-0.01072917,36.159191,171.36119)"
         fill="#000000"
         stroke="none"
         id="g21535"
         style="display:inline;opacity:0.469325;fill:#ff0000;fill-opacity:1"><path
           d="m 5340,12352 c 0,-11 94,-150 220,-327 168,-235 282,-487 330,-728 C 6036,10554 5773,9688 4979,8302 4673,7770 4251,7103 3398,5805 2949,5121 2934,5097 2850,4938 2656,4566 2557,4243 2530,3890 2497,3469 2607,3020 2839,2625 3260,1910 4052,1269 5235,685 5668,471 6066,304 6630,98 c 240,-88 240,-87 240,-84 0,2 -42,27 -92,56 -51,29 -142,84 -203,123 -1160,743 -1747,1670 -1630,2574 28,213 72,365 226,779 138,372 303,742 564,1264 157,315 179,358 547,1045 121,226 239,446 263,490 432,810 684,1422 801,1946 25,110 28,144 28,304 0,197 -16,313 -73,523 -174,638 -614,1471 -1251,2367 -322,454 -710,927 -710,867 z"
           id="path21529"
           style="fill:#ff0000;fill-opacity:1" /><path
           d="m 8053,8360 c 19,-41 60,-128 92,-193 67,-140 85,-215 85,-359 0,-370 -215,-1006 -630,-1863 -51,-104 -120,-248 -155,-320 -34,-71 -206,-411 -382,-755 -714,-1397 -862,-1746 -894,-2109 -37,-425 118,-902 433,-1329 102,-138 250,-293 266,-278 2,3 -33,52 -78,108 -46,57 -94,126 -107,155 -137,297 -3,840 399,1623 148,288 294,545 580,1022 452,755 618,1071 800,1523 101,253 236,676 277,872 23,113 33,281 21,381 -31,264 -105,443 -440,1062 -262,486 -343,626 -267,460 z"
           id="path21531"
           style="fill:#ff0000;fill-opacity:1" /><path
           d="m 9502,6810 c 47,-91 95,-198 107,-238 164,-528 56,-1336 -284,-2117 -134,-308 -258,-515 -745,-1245 -505,-757 -668,-1025 -817,-1345 -136,-292 -191,-502 -213,-815 -10,-142 -1,-383 19,-520 8,-51 9,-52 10,-15 4,142 90,312 268,527 117,143 503,523 863,850 398,362 647,611 821,823 565,688 803,1351 775,2157 -20,580 -103,825 -497,1468 -97,157 -219,359 -274,450 -54,91 -102,170 -107,175 -5,6 28,-64 74,-155 z"
           id="path21533"
           style="fill:#ff0000;fill-opacity:1" /></g></clipPath><filter
       style="color-interpolation-filters:sRGB"
       id="filter21537"
       x="-0.01136724"
       y="-0.012707358"
       width="1.0227345"
       height="1.0254147"><feGaussianBlur
         stdDeviation="1.34055"
         id="feGaussianBlur21539" /></filter></defs><g
     id="layer1" /><g
     id="layer3"
     style="display:inline;fill:#214478"><rect
       style="fill:url(#linearGradient5158);fill-opacity:1;stroke-width:0.238237;stroke-dasharray:none"
       id="rect3969"
       width="210.19917"
       height="209.93527"
       x="-0.23284693"
       y="0.032364435" /></g><g
     id="layer2"
     style="display:inline;fill:#b7c4c8"><g
       transform="matrix(0.00974902,0,0,-0.00974902,42.448074,165.29883)"
       fill="#000000"
       stroke="none"
       id="g14165"
       style="display:inline;fill:#d5e5ff;fill-opacity:1"><path
         d="m 5340,12352 c 0,-11 94,-150 220,-327 168,-235 282,-487 330,-728 C 6036,10554 5773,9688 4979,8302 4673,7770 4251,7103 3398,5805 2949,5121 2934,5097 2850,4938 2656,4566 2557,4243 2530,3890 2497,3469 2607,3020 2839,2625 3260,1910 4052,1269 5235,685 5668,471 6066,304 6630,98 c 240,-88 240,-87 240,-84 0,2 -42,27 -92,56 -51,29 -142,84 -203,123 -1160,743 -1747,1670 -1630,2574 28,213 72,365 226,779 138,372 303,742 564,1264 157,315 179,358 547,1045 121,226 239,446 263,490 432,810 684,1422 801,1946 25,110 28,144 28,304 0,197 -16,313 -73,523 -174,638 -614,1471 -1251,2367 -322,454 -710,927 -710,867 z"
         id="path14159"
         style="fill:#d5e5ff;fill-opacity:1" /><path
         d="m 8053,8360 c 19,-41 60,-128 92,-193 67,-140 85,-215 85,-359 0,-370 -215,-1006 -630,-1863 -51,-104 -120,-248 -155,-320 -34,-71 -206,-411 -382,-755 -714,-1397 -862,-1746 -894,-2109 -37,-425 118,-902 433,-1329 102,-138 250,-293 266,-278 2,3 -33,52 -78,108 -46,57 -94,126 -107,155 -137,297 -3,840 399,1623 148,288 294,545 580,1022 452,755 618,1071 800,1523 101,253 236,676 277,872 23,113 33,281 21,381 -31,264 -105,443 -440,1062 -262,486 -343,626 -267,460 z"
         id="path14161"
         style="fill:#d5e5ff;fill-opacity:1" /><path
         d="m 9502,6810 c 47,-91 95,-198 107,-238 164,-528 56,-1336 -284,-2117 -134,-308 -258,-515 -745,-1245 -505,-757 -668,-1025 -817,-1345 -136,-292 -191,-502 -213,-815 -10,-142 -1,-383 19,-520 8,-51 9,-52 10,-15 4,142 90,312 268,527 117,143 503,523 863,850 398,362 647,611 821,823 565,688 803,1351 775,2157 -20,580 -103,825 -497,1468 -97,157 -219,359 -274,450 -54,91 -102,170 -107,175 -5,6 28,-64 74,-155 z"
         id="path14163"
         style="fill:#d5e5ff;fill-opacity:1" /></g><path
       id="rect11217"
       style="display:none;opacity:1;fill:#000000;fill-opacity:1;stroke-width:0.264999;stroke-dasharray:none;filter:url(#filter21537)"
       d="M -30.549146,-22.890745 V 230.29484 H 252.48525 V -22.890745 Z M 95.950626,39.533352 c 0.470003,0.04495 4.331214,4.790453 7.570074,9.357052 6.83448,9.613326 11.55505,18.550662 13.42192,25.395866 0.61157,2.253123 0.78342,3.497899 0.78342,5.611543 0,1.716666 -0.032,2.081609 -0.30024,3.261817 -1.25531,5.622079 -3.95931,12.18821 -8.59431,20.87883 -0.2575,0.47208 -1.5233,2.83226 -2.82153,5.25705 -3.94833,7.37093 -4.18441,7.83255 -5.86889,11.21223 -2.800313,5.60062 -4.570689,9.5702 -6.051313,13.56145 -1.65229,4.44187 -2.124758,6.07283 -2.425175,8.35814 -1.255311,9.69916 5.043031,19.64516 17.488848,27.61692 0.65448,0.41844 1.63098,1.00867 2.17817,1.31982 0.53645,0.31114 0.98702,0.57902 0.98702,0.60048 0,0.0322 -4e-5,0.0429 -2.57504,-0.90124 -6.05125,-2.21021 -10.321834,-4.00177 -14.96756,-6.29781 -12.692595,-6.26582 -21.189981,-13.1434 -25.706958,-20.81475 -2.489164,-4.23801 -3.669105,-9.05532 -3.315043,-13.57229 0.289688,-3.7874 1.351926,-7.25303 3.433382,-11.24428 0.90125,-1.70594 1.061836,-1.96301 5.879228,-9.30176 C 84.218602,95.905972 88.746295,88.749203 92.029418,83.041291 100.54837,68.170676 103.37047,58.8791 101.80402,50.907335 c -0.515,-2.585728 -1.73837,-5.289024 -3.540874,-7.810376 -1.351874,-1.899061 -2.360063,-3.390809 -2.360063,-3.50883 0,-0.04023 0.01621,-0.05777 0.04754,-0.05478 z m 28.768784,42.172103 c 0.0322,-0.08449 1.04812,1.738489 3.1564,5.649268 3.59426,6.641349 4.38803,8.561638 4.72064,11.394136 0.12875,1.072916 0.0215,2.875731 -0.22531,4.088121 -0.4399,2.10292 -1.88827,6.64103 -2.97191,9.35551 -1.95271,4.84958 -3.73388,8.24009 -8.58346,16.3406 -3.06854,5.11781 -4.63496,7.87522 -6.22287,10.96522 -4.31313,8.40093 -5.75077,14.22685 -4.28088,17.41341 0.13948,0.31115 0.65471,1.05139 1.14825,1.66295 0.48281,0.60083 0.8581,1.12691 0.83664,1.1591 -0.17166,0.16094 -1.75971,-1.50214 -2.85409,-2.98276 -3.37968,-4.58135 -5.04269,-9.69919 -4.64571,-14.25908 0.34333,-3.89469 1.93156,-7.63944 9.59218,-22.62808 1.88833,-3.69083 3.73367,-7.33851 4.09846,-8.10028 0.37552,-0.7725 1.11576,-2.31755 1.66295,-3.43338 4.4526,-9.194893 6.75927,-16.018659 6.75927,-19.988448 0,-1.544999 -0.19272,-2.349879 -0.91157,-3.851961 -0.34333,-0.697395 -0.78368,-1.630779 -0.98754,-2.070675 -0.20385,-0.44526 -0.30218,-0.685487 -0.29145,-0.713651 z m 15.04404,15.680697 c 0.0537,0.05365 0.56888,0.901568 1.14825,1.877921 0.59011,0.976357 1.89915,3.143657 2.93987,4.828137 4.22729,6.89884 5.11791,9.52754 5.3325,15.75045 0.30041,8.64771 -2.25328,15.76112 -8.31526,23.14278 -1.86687,2.27458 -4.53856,4.94599 -8.80876,8.82995 -3.8625,3.50844 -8.00407,7.58559 -9.25939,9.11986 -1.90979,2.30677 -2.83236,4.13089 -2.87527,5.65443 -0.0107,0.39698 -0.0217,0.38596 -0.10749,-0.16123 -0.21458,-1.46989 -0.3109,-4.05545 -0.20361,-5.57899 0.23605,-3.35822 0.82597,-5.61125 2.28514,-8.74416 1.59864,-3.43334 3.34764,-6.30919 8.76587,-14.43117 5.2251,-7.83228 6.5556,-10.05326 7.99331,-13.35784 3.64791,-8.37947 4.80642,-17.04834 3.04684,-22.71334 -0.12875,-0.42916 -0.64346,-1.5775 -1.14773,-2.553851 -0.49354,-0.976353 -0.84791,-1.727322 -0.79427,-1.662947 z"
       clip-path="url(#clipPath21527)"
       transform="matrix(0.908646,0,0,0.908646,9.59217,9.59217)" /></g><g
     id="layer4"><path
       style="opacity:1;fill:#d5e5ff;fill-opacity:1;stroke-width:0.264999;stroke-dasharray:none"
       id="path22320"
       d="m 15.829949,28.267765 -1.599067,-7.446619 -7.4466184,-1.599066 7.4466184,-1.599066 1.599066,-7.446619 1.599067,7.446619 7.446618,1.599066 -7.446618,1.599067 z"
       transform="translate(2.1053314,-1.2868004)" /><path
       style="opacity:1;fill:#d5e5ff;fill-opacity:1;stroke-width:0.264999;stroke-dasharray:none"
       id="path22322"
       d="m 15.829949,28.267765 -1.599067,-7.446619 -7.4466184,-1.599066 7.4466184,-1.599066 1.599066,-7.446619 1.599067,7.446619 7.446618,1.599066 -7.446618,1.599067 z"
       transform="translate(176.23477,-1.2868004)" /><path
       style="opacity:1;fill:#d5e5ff;fill-opacity:1;stroke-width:0.264999;stroke-dasharray:none"
       id="path22324"
       d="m 15.829949,28.267765 -1.599067,-7.446619 -7.4466184,-1.599066 7.4466184,-1.599066 1.599066,-7.446619 1.599067,7.446619 7.446618,1.599066 -7.446618,1.599067 z"
       transform="translate(176.23477,172.84264)" /><path
       style="opacity:1;fill:#d5e5ff;fill-opacity:1;stroke-width:0.264999;stroke-dasharray:none"
       id="path22326"
       d="m 15.829949,28.267765 -1.599067,-7.446619 -7.4466184,-1.599066 7.4466184,-1.599066 1.599066,-7.446619 1.599067,7.446619 7.446618,1.599066 -7.446618,1.599067 z"
       transform="translate(2.1053314,172.84264)" /><rect
       style="opacity:1;fill:#d5e5ff;fill-opacity:1;stroke-width:0.264999;stroke-dasharray:none"
       id="rect22386"
       width="0.75380713"
       height="149.25381"
       x="17.558376"
       y="30.529188" /><rect
       style="opacity:1;fill:#d5e5ff;fill-opacity:1;stroke-width:0.264999;stroke-dasharray:none"
       id="rect22388"
       width="0.75380713"
       height="149.25381"
       x="191.68782"
       y="30.529188" /><rect
       style="opacity:1;fill:#d5e5ff;fill-opacity:1;stroke-width:0.264999;stroke-dasharray:none"
       id="rect22390"
       width="0.75380713"
       height="149.25381"
       x="-192.44162"
       y="31.088238"
       transform="rotate(-90)" /><rect
       style="opacity:1;fill:#d5e5ff;fill-opacity:1;stroke-width:0.264999;stroke-dasharray:none"
       id="rect22392"
       width="0.75380713"
       height="149.25381"
       x="-18.312183"
       y="31.088238"
       transform="rotate(-90)" /></g></svg>
