<?xml version="1.0" encoding="UTF-8" standalone="no"?>
<!-- Created with Inkscape (http://www.inkscape.org/) -->

<svg
   width="102.39825mm"
   height="102.39825mm"
   viewBox="0 0 102.39825 102.39825"
   version="1.1"
   id="svg5"
   xmlns="http://www.w3.org/2000/svg"
   xmlns:svg="http://www.w3.org/2000/svg">
  <defs
     id="defs2">
    <rect
       x="111.11235"
       y="123.93301"
       width="173.79111"
       height="161.68272"
       id="rect6438" />
  </defs>
  <g
     id="layer1"
     transform="translate(-58.668247,-81.659382)">
    <circle
       style="fill:#7e0018;fill-opacity:1;stroke:#000000;stroke-width:1.765;stroke-opacity:0"
       id="path234"
       cx="109.86737"
       cy="132.85851"
       r="50.316624" />
    <g
       aria-label="ӃӨƗT
YΣƂ∇"
       transform="matrix(0.46156454,0,0,0.46156454,25.911699,45.498912)"
       id="text6436"
       style="font-size:53.3333px;white-space:pre;shape-inside:url(#rect6438);fill:#7e0018;stroke:#f0f0f0;stroke-width:6.67087">
      <path
         d="m 144.39451,165.95056 q 0,8.61979 -4.40104,13.35937 -4.1927,4.5052 -11.40624,4.5052 -4.92187,0 -8.85416,-2.23958 -3.93229,-2.21354 -4.42708,-5.33854 h 5.05208 q 0.44271,1.14584 2.3177,2.08333 2.36979,1.17188 5.70313,1.17188 5.15624,0 8.04687,-3.46354 2.91666,-3.46354 2.91666,-9.63541 0,-4.66146 -2.23958,-7.8125 -2.76042,-3.85416 -8.125,-3.85416 h -8.61978 v 17.86457 h -5.05208 v -38.17706 h 5.05208 v 16.71874 q 3.75,0 5.57291,-2.13541 0.96354,-1.1198 2.89062,-5.65104 1.43229,-3.38542 2.10938,-4.47917 1.40625,-2.29166 3.4375,-3.43749 1.87499,-1.04167 4.1927,-1.04167 2.91667,0 3.07292,0.0521 v 4.375 q -0.33855,0 -1.01563,-0.026 -0.67708,-0.026 -1.01562,-0.026 -2.68229,0 -4.16667,1.84895 -0.83333,1.01563 -2.16145,4.32292 -1.92709,4.84375 -3.35938,6.19791 7.68229,0 11.43229,4.79166 3.04687,3.88021 3.04687,10.02604 z"
         id="path6442" />
      <path
         d="m 185.72261,153.21619 q 0,9.53125 -4.86979,14.86979 -4.86978,5.31249 -13.15103,5.31249 -8.30729,0 -13.15103,-5.31249 -4.84375,-5.33854 -4.84375,-14.86979 0,-9.47916 4.89583,-14.9479 4.71354,-5.26042 13.09895,-5.26042 8.30729,0 13.12499,5.26042 4.89583,5.36458 4.89583,14.9479 z m -5.46874,-2.57812 q -0.4948,-5.70312 -3.28125,-9.08854 -3.38542,-4.08854 -9.24479,-4.08854 -5.91145,0 -9.27083,4.08854 -2.78645,3.38542 -3.28124,9.08854 z m 0.026,4.66146 h -25.1302 q 0.41667,6.04166 3.41146,9.63541 3.30729,4.01041 9.16666,4.01041 5.85937,0 9.16666,-4.01041 2.96875,-3.59375 3.38542,-9.63541 z"
         id="path6444" />
      <path
         d="m 202.88406,155.2214 h -4.16666 v 17.36978 h -5.05208 V 155.2214 h -4.16667 v -3.4375 h 4.16667 v -17.36978 h 5.05208 v 17.36978 h 4.16666 z"
         id="path6446" />
      <path
         d="m 236.37363,138.39849 h -13.85416 v 34.19269 h -5.15625 v -34.19269 h -13.85416 v -4.58333 h 32.86457 z"
         id="path6448" />
      <path
         d="m 143.76951,201.39524 -13.64582,21.77082 v 17.0052 h -5.15625 v -16.45832 l -13.69791,-22.3177 h 5.70312 l 10.59895,17.34374 10.70312,-17.34374 z"
         id="path6450" />
      <path
         d="m 177.25908,240.17126 h -30.2604 V 235.3796 L 163.1445,219.75461 147.51951,206.0567 v -4.66146 h 28.54165 v 4.58333 h -21.66665 l 15.2604,13.17708 v 0.67708 l -16.40624,15.7552 h 24.01041 z"
         id="path6452" />
      <path
         d="m 184.13407,201.9942 h 24.76561 v 4.50521 h -19.71353 v 11.77082 h 9.11457 q 5.05208,0 8.02083,0.96354 2.99479,0.96354 4.79167,3.64583 1.79687,2.65625 1.79687,6.19792 0,2.89062 -1.30208,5.41666 -1.27604,2.5 -3.82812,4.08854 -2.55209,1.58854 -8.69792,1.58854 h -14.9479 z m 5.05208,33.88019 h 10.10416 q 4.08854,0 6.11979,-1.66667 2.05729,-1.66666 2.05729,-4.99999 0,-2.3698 -1.17188,-3.95834 -1.17187,-1.58854 -3.25521,-2.10937 -2.08333,-0.52083 -7.10937,-0.52083 h -6.74478 z"
         id="path6454" />
      <path
         d="m 256.5559,201.62962 v 3.51562 l -17.68228,35.36456 h -1.77083 l -16.53645,-35.36456 v -3.51562 z m -2.10937,3.69791 h -28.85415 l 13.95833,29.73957 z"
         id="path6456" />
    </g>
  </g>
</svg>
