<?xml version="1.0" encoding="UTF-8" standalone="no"?>
<!-- Created with Inkscape (http://www.inkscape.org/) -->

<svg
   width="102.39825mm"
   height="102.39825mm"
   viewBox="0 0 102.39825 102.39825"
   version="1.1"
   id="svg5"
   xmlns="http://www.w3.org/2000/svg"
   xmlns:svg="http://www.w3.org/2000/svg">
  <defs
     id="defs2" />
  <g
     id="layer1"
     transform="translate(-58.668247,-81.659382)">
    <circle
       style="fill:#7e0018;fill-opacity:1;stroke:#000000;stroke-width:1.765;stroke-opacity:0"
       id="path234"
       cx="109.86737"
       cy="132.85851"
       r="50.316624" />
    <g
       aria-label="ҦϞV
ЋɅŦƗ"
       id="text1524"
       style="font-size:25.6773px;fill:#7e0018;stroke:#f0f0f0;stroke-width:3.21168">
      <path
         d="m 106.35391,122.44655 q 0,4.58881 -2.11888,7.09636 -2.01858,2.38217 -5.491534,2.38217 -2.369633,0 -4.27537,-1.07824 -1.8932,-1.06571 -2.131417,-2.57024 h 2.44486 q 0.213142,0.55166 1.115859,1.00302 1.140935,0.5642 2.745766,0.5642 2.482476,0 3.874166,-1.90574 1.40422,-1.8932 1.40422,-5.27839 0,-6.21872 -4.488508,-6.21872 -1.955888,0 -4.651503,1.14094 v 8.93941 h -2.44486 v -16.21131 h -9.578836 v 16.21131 H 80.32555 v -18.38034 h 14.456019 v 7.40981 q 2.708153,-1.21616 4.977484,-1.21616 3.472957,0 5.165547,2.49501 1.42931,2.10634 1.42931,5.61691 z"
         id="path6408" />
      <path
         d="m 123.54315,124.69081 -0.26329,1.96842 q -0.52658,0.0627 -0.94033,0.0627 -0.45136,0 -0.97794,-0.0752 -3.10936,-0.43882 -3.10936,-3.47295 0,-0.38867 0.0502,-0.75227 l 0.81495,-5.94289 -9.55376,6.18111 -0.30091,-0.0376 1.50453,-10.66962 q 0.0502,-0.35106 0.0502,-0.58928 0,-1.66752 -1.68005,-1.66752 -0.71466,0 -1.62991,0.15046 l 0.28837,-1.96843 q 0.55166,-0.0627 0.94033,-0.0627 0.42628,0 0.9654,0.0752 3.1219,0.43882 3.1219,3.47295 0,0.38867 -0.0502,0.75227 l -0.85256,6.0808 9.56629,-6.20618 0.28837,0.0251 -1.47945,10.55678 q -0.0502,0.36359 -0.0502,0.58927 0,1.6926 1.68006,1.6926 0.73972,0 1.61736,-0.16299 z"
         id="path6410" />
      <path
         d="m 140.77001,107.85262 -6.79546,18.6687 h -3.30996 l -6.79546,-18.6687 h 2.658 l 5.85513,16.42444 5.85513,-16.42444 z"
         id="path6412" />
      <path
         d="m 86.180677,158.91518 h -2.482473 v -16.46206 h -5.39123 v -2.20664 h 14.142575 v 2.20664 h -6.268872 v 5.85513 q 1.191086,-0.38867 2.733228,-0.70212 1.542143,-0.32598 2.83353,-0.32598 1.266312,0 2.33202,0.31345 1.065709,0.31344 1.830511,0.97794 0.764802,0.65196 1.191086,1.68006 0.438821,1.01555 0.438821,2.4574 v 6.20618 H 95.0574 v -4.96495 q 0,-0.92779 -0.137916,-1.80543 -0.137915,-0.87765 -0.514047,-1.41677 -0.401208,-0.57673 -1.16601,-0.87764 -0.752265,-0.31344 -2.006039,-0.31344 -1.329001,0 -2.5577,0.23821 -1.216161,0.23822 -2.495011,0.6645 z"
         id="path6414" />
      <path
         d="m 109.14982,140.53485 7.12144,18.38033 h -2.64546 l -4.77688,-13.34016 q -0.62689,-1.75529 -0.96541,-3.0216 -0.41374,1.51707 -0.97794,3.0216 l -4.96495,13.34016 h -2.482472 l 7.184122,-18.38033 z"
         id="path6416" />
      <path
         d="m 123.14195,149.63725 h -4.16253 v -1.7929 h 4.16253 v -5.39123 h -6.67008 v -2.20664 h 15.82263 v 2.20664 h -6.67008 v 5.39123 h 4.16253 v 1.7929 h -4.16253 v 9.27793 h -2.48247 z"
         id="path6418" />
      <path
         d="m 139.12757,150.5525 h -2.00604 v 8.36268 h -2.43232 v -8.36268 h -2.00604 v -1.65498 h 2.00604 v -8.36267 h 2.43232 v 8.36267 h 2.00604 z"
         id="path6420" />
    </g>
  </g>
</svg>
